<?xml version="1.0" encoding="UTF-8" standalone="no"?>
<svg
   height="128px"
   viewBox="0 0 128 128"
   width="128px"
   version="1.1"
   id="svg35"
   sodipodi:docname="io.github.dingusreal.Chicken.svg"
   inkscape:version="1.3.1 (91b66b0783, 2023-11-16)"
   xmlns:inkscape="http://www.inkscape.org/namespaces/inkscape"
   xmlns:sodipodi="http://sodipodi.sourceforge.net/DTD/sodipodi-0.dtd"
   xmlns="http://www.w3.org/2000/svg"
   xmlns:svg="http://www.w3.org/2000/svg">
  <defs
     id="defs35" />
  <sodipodi:namedview
     id="namedview35"
     pagecolor="#ffffff"
     bordercolor="#000000"
     borderopacity="0.25"
     inkscape:showpageshadow="2"
     inkscape:pageopacity="0.0"
     inkscape:pagecheckerboard="0"
     inkscape:deskcolor="#d1d1d1"
     inkscape:zoom="6.3203125"
     inkscape:cx="55.218789"
     inkscape:cy="58.620519"
     inkscape:window-width="1920"
     inkscape:window-height="1015"
     inkscape:window-x="0"
     inkscape:window-y="0"
     inkscape:window-maximized="1"
     inkscape:current-layer="svg35" />
  <filter
     id="a"
     height="1"
     width="1"
     x="0"
     y="0">
    <feColorMatrix
       color-interpolation-filters="sRGB"
       values="0 0 0 0 1 0 0 0 0 1 0 0 0 0 1 0 0 0 1 0"
       id="feColorMatrix1" />
  </filter>
  <linearGradient
     id="b"
     gradientTransform="matrix(0.232143 0 0 0.328947 -8.566895 263.826857)"
     gradientUnits="userSpaceOnUse"
     x1="88.595886"
     x2="536.595886"
     y1="-449.394012"
     y2="-449.394012">
    <stop
       offset="0"
       id="stop1" />
    <stop
       offset="0.0384615"
       stop-color="#5e5c64"
       id="stop2" />
    <stop
       offset="0.0768555"
       stop-color="#3d3846"
       id="stop3" />
    <stop
       offset="0.923077"
       stop-color="#3d3846"
       id="stop4" />
    <stop
       offset="0.961538"
       stop-color="#5e5c64"
       id="stop5" />
    <stop
       offset="1"
       id="stop6" />
  </linearGradient>
  <clipPath
     id="c">
    <rect
       height="128"
       width="128"
       id="rect6" />
  </clipPath>
  <clipPath
     id="d">
    <rect
       height="128"
       width="128"
       id="rect7" />
  </clipPath>
  <mask
     id="e">
    <g
       filter="url(#a)"
       id="g18">
      <g
         clip-path="url(#d)"
         filter="url(#a)"
         id="g17">
        <g
           clip-path="url(#c)"
           id="g16">
          <path
             d="m 20 16 h 88 c 4.417969 0 8 3.582031 8 8 v 84 c 0 4.417969 -3.582031 8 -8 8 h -88 c -4.417969 0 -8 -3.582031 -8 -8 v -84 c 0 -4.417969 3.582031 -8 8 -8 z m 0 0"
             fill="url(#b)"
             id="path7" />
          <path
             d="m 20 12 h 88 c 4.417969 0 8 3.582031 8 8 v 84 c 0 4.417969 -3.582031 8 -8 8 h -88 c -4.417969 0 -8 -3.582031 -8 -8 v -84 c 0 -4.417969 3.582031 -8 8 -8 z m 0 0"
             fill="#5e5c64"
             id="path8" />
          <path
             d="m 48.667969 76.917969 h 19.332031 c 4.417969 0 8 3.582031 8 8 v 6.378906 c 0 4.417969 -3.582031 8 -8 8 h -19.332031 c -4.417969 0 -8 -3.582031 -8 -8 v -6.378906 c 0 -4.417969 3.582031 -8 8 -8 z m 0 0"
             fill="#f5c211"
             id="path9" />
          <path
             d="m 46.019531 53.273438 h 25.980469 c 8.835938 0 16 7.164062 16 16 v 2.832031 c 0 8.835937 -7.164062 16 -16 16 h -25.980469 c -8.835937 0 -16 -7.164063 -16 -16 v -2.832031 c 0 -8.835938 7.164063 -16 16 -16 z m 0 0"
             fill="#b5835a"
             id="path10" />
          <path
             d="m 77.867188 24.386719 h 5.804687 c 4.417969 0 8 2.410156 8 5.382812 c 0 2.972657 -3.582031 5.382813 -8 5.382813 h -5.804687 c -4.417969 0 -8 -2.410156 -8 -5.382813 c 0 -2.972656 3.582031 -5.382812 8 -5.382812 z m 0 0"
             fill="#e01b24"
             id="path11" />
          <path
             d="m 72 29.769531 h 8 c 4.417969 0 8 3.582031 8 8 v 31.011719 c 0 4.417969 -3.582031 8 -8 8 h -8 c -4.417969 0 -8 -3.582031 -8 -8 v -31.011719 c 0 -4.417969 3.582031 -8 8 -8 z m 0 0"
             fill="#b5835a"
             id="path12" />
          <path
             d="m 38.019531 47.222656 h 5.296875 c 4.417969 0 8 3.578125 8 8 v 13.554688 c 0 4.421875 -3.582031 8 -8 8 h -5.296875 c -4.417969 0 -8 -3.578125 -8 -8 v -13.554688 c 0 -4.421875 3.582031 -8 8 -8 z m 0 0"
             fill="#b5835a"
             id="path13" />
          <path
             d="m 88 41.328125 c 2.53125 0 4.585938 3.582031 4.585938 8 v 0.714844 c 0 4.417969 -2.054688 8 -4.585938 8 s -4.585938 -3.582031 -4.585938 -8 v -0.714844 c 0 -4.417969 2.054688 -8 4.585938 -8 z m 0 0"
             fill="#e01b24"
             id="path14" />
          <path
             d="m 86.828125 36.453125 h 2.34375 c 4.417969 0 8 2.410156 8 5.382813 c 0 2.976562 -3.582031 5.386718 -8 5.386718 h -2.34375 c -4.417969 0 -8 -2.410156 -8 -5.386718 c 0 -2.972657 3.582031 -5.382813 8 -5.382813 z m 0 0"
             fill="#f5c211"
             id="path15" />
          <path
             d="m 76.328125 33.953125 c 1.382813 0 2.5 1.121094 2.5 2.5 c 0 1.382813 -1.117187 2.5 -2.5 2.5 c -1.378906 0 -2.5 -1.117187 -2.5 -2.5 c 0 -1.378906 1.121094 -2.5 2.5 -2.5 z m 0 0"
             fill="#241f31"
             id="path16" />
        </g>
      </g>
    </g>
  </mask>
  <mask
     id="f">
    <g
       filter="url(#a)"
       id="g19">
      <rect
         fill-opacity="0.8"
         height="184.32"
         width="184.32"
         x="-28.16"
         y="-28.16"
         id="rect18" />
    </g>
  </mask>
  <linearGradient
     id="g"
     gradientTransform="matrix(0 0.37 -0.98462 0 295.38501 -30.360001)"
     gradientUnits="userSpaceOnUse"
     x1="300"
     x2="428"
     y1="235"
     y2="235">
    <stop
       offset="0"
       stop-color="#f9f06b"
       id="stop19" />
    <stop
       offset="1"
       stop-color="#f5c211"
       id="stop20" />
  </linearGradient>
  <clipPath
     id="h">
    <rect
       height="128"
       width="128"
       id="rect20" />
  </clipPath>
  <clipPath
     id="i">
    <rect
       height="128"
       width="128"
       id="rect21" />
  </clipPath>
  <path
     d="m 20 16 h 88 c 4.417969 0 8 3.582031 8 8 v 84 c 0 4.417969 -3.582031 8 -8 8 h -88 c -4.417969 0 -8 -3.582031 -8 -8 v -84 c 0 -4.417969 3.582031 -8 8 -8 z m 0 0"
     fill="url(#b)"
     id="path21" />
  <path
     d="m 20 12 h 88 c 4.417969 0 8 3.582031 8 8 v 84 c 0 4.417969 -3.582031 8 -8 8 h -88 c -4.417969 0 -8 -3.582031 -8 -8 v -84 c 0 -4.417969 3.582031 -8 8 -8 z m 0 0"
     fill="#5e5c64"
     id="path22" />
  <path
     d="m 48.667969 76.917969 h 19.332031 c 4.417969 0 8 3.582031 8 8 v 6.378906 c 0 4.417969 -3.582031 8 -8 8 h -19.332031 c -4.417969 0 -8 -3.582031 -8 -8 v -6.378906 c 0 -4.417969 3.582031 -8 8 -8 z m 0 0"
     fill="#f5c211"
     id="path23" />
  <path
     d="m 46.019531 53.273438 h 25.980469 c 8.835938 0 16 7.164062 16 16 v 2.832031 c 0 8.835937 -7.164062 16 -16 16 h -25.980469 c -8.835937 0 -16 -7.164063 -16 -16 v -2.832031 c 0 -8.835938 7.164063 -16 16 -16 z m 0 0"
     fill="#b5835a"
     id="path24" />
  <path
     d="m 77.867188 24.386719 h 5.804687 c 4.417969 0 8 2.410156 8 5.382812 c 0 2.972657 -3.582031 5.382813 -8 5.382813 h -5.804687 c -4.417969 0 -8 -2.410156 -8 -5.382813 c 0 -2.972656 3.582031 -5.382812 8 -5.382812 z m 0 0"
     fill="#e01b24"
     id="path25" />
  <path
     d="m 72 29.769531 h 8 c 4.417969 0 8 3.582031 8 8 v 31.011719 c 0 4.417969 -3.582031 8 -8 8 h -8 c -4.417969 0 -8 -3.582031 -8 -8 v -31.011719 c 0 -4.417969 3.582031 -8 8 -8 z m 0 0"
     fill="#b5835a"
     id="path26" />
  <path
     d="m 38.019531 47.222656 h 5.296875 c 4.417969 0 8 3.578125 8 8 v 13.554688 c 0 4.421875 -3.582031 8 -8 8 h -5.296875 c -4.417969 0 -8 -3.578125 -8 -8 v -13.554688 c 0 -4.421875 3.582031 -8 8 -8 z m 0 0"
     fill="#b5835a"
     id="path27" />
  <path
     d="m 88 41.328125 c 2.53125 0 4.585938 3.582031 4.585938 8 v 0.714844 c 0 4.417969 -2.054688 8 -4.585938 8 s -4.585938 -3.582031 -4.585938 -8 v -0.714844 c 0 -4.417969 2.054688 -8 4.585938 -8 z m 0 0"
     fill="#e01b24"
     id="path28" />
  <path
     d="m 86.828125 36.453125 h 2.34375 c 4.417969 0 8 2.410156 8 5.382813 c 0 2.976562 -3.582031 5.386718 -8 5.386718 h -2.34375 c -4.417969 0 -8 -2.410156 -8 -5.386718 c 0 -2.972657 3.582031 -5.382813 8 -5.382813 z m 0 0"
     fill="#f5c211"
     id="path29" />
  <path
     d="m 76.328125 33.953125 c 1.382813 0 2.5 1.121094 2.5 2.5 c 0 1.382813 -1.117187 2.5 -2.5 2.5 c -1.378906 0 -2.5 -1.117187 -2.5 -2.5 c 0 -1.378906 1.121094 -2.5 2.5 -2.5 z m 0 0"
     fill="#241f31"
     id="path30" />
</svg>
